<svg xmlns="http://www.w3.org/2000/svg" viewBox="0 0 450 412"><path d="M25.6 7.4C2.2 20.8-5.9 50.6 7.5 74l179 312.5c13.4 23.4 43.2 31.5 66.6 18.1 23.4-13.4 31.5-43.2 18.1-66.6L92.3 25.5C78.9 2.1 49-6 25.6 7.4zm171.2 0c-23.4 13.4-31.5 43.2-18.1 66.6l179 312.5c13.4 23.4 43.2 31.5 66.6 18.1 23.4-13.4 31.5-43.2 18.1-66.6l-179-312.5C250.1 2.1 220.2-6 196.8 7.4zM351.5 50c0 25.3 20.5 45.9 45.8 45.9 25.3 0 45.8-20.5 45.8-45.8 0-25.3-20.5-45.8-45.8-45.8-25.3-.1-45.8 20.4-45.8 45.7z" fill-rule="evenodd" clip-rule="evenodd"/></svg>